<mxfile host="app.diagrams.net" modified="2021-06-21T09:23:58.396Z" agent="5.0 (Macintosh; Intel Mac OS X 10_15_7) AppleWebKit/537.36 (KHTML, like Gecko) Chrome/91.0.4472.101 Safari/537.36" etag="M_mITchlSlaA2pI_hXA5" version="14.7.6" type="github">
  <diagram id="3AsJvsTymnn4svCff-Rb" name="Page-1">
    <mxGraphModel dx="786" dy="546" grid="1" gridSize="10" guides="1" tooltips="1" connect="1" arrows="1" fold="1" page="1" pageScale="1" pageWidth="827" pageHeight="1169" math="0" shadow="0">
      <root>
        <mxCell id="0" />
        <mxCell id="1" parent="0" />
        <mxCell id="_ud3qoN4hDUyJuRRGHcF-1" value="&lt;span style=&quot;color: rgb(51 , 51 , 51) ; font-family: &amp;#34;arial&amp;#34; ; font-size: 16px ; background-color: rgb(255 , 255 , 255)&quot;&gt;半导体芯片行业三种主要的运作模式&lt;/span&gt;" style="rounded=0;whiteSpace=wrap;html=1;" vertex="1" parent="1">
          <mxGeometry x="80" y="160" width="280" height="40" as="geometry" />
        </mxCell>
        <mxCell id="_ud3qoN4hDUyJuRRGHcF-2" value="&lt;span style=&quot;color: rgb(51 , 51 , 51) ; font-family: &amp;#34;arial&amp;#34; ; font-size: 16px ; background-color: rgb(255 , 255 , 255)&quot;&gt;IDM（整合设备制造）&lt;/span&gt;" style="rounded=0;whiteSpace=wrap;html=1;" vertex="1" parent="1">
          <mxGeometry x="440" y="80" width="240" height="40" as="geometry" />
        </mxCell>
        <mxCell id="_ud3qoN4hDUyJuRRGHcF-3" value="&lt;span style=&quot;color: rgb(51 , 51 , 51) ; font-family: &amp;#34;arial&amp;#34; ; font-size: 16px ; background-color: rgb(255 , 255 , 255)&quot;&gt;Fabless（无厂半导体公司）&lt;/span&gt;" style="rounded=0;whiteSpace=wrap;html=1;" vertex="1" parent="1">
          <mxGeometry x="440" y="160" width="240" height="40" as="geometry" />
        </mxCell>
        <mxCell id="_ud3qoN4hDUyJuRRGHcF-4" value="&lt;span style=&quot;color: rgb(51 , 51 , 51) ; font-family: &amp;#34;arial&amp;#34; ; font-size: 16px ; background-color: rgb(255 , 255 , 255)&quot;&gt;Foundry（晶圆厂/代工厂）模式&lt;/span&gt;" style="rounded=0;whiteSpace=wrap;html=1;" vertex="1" parent="1">
          <mxGeometry x="440" y="240" width="240" height="40" as="geometry" />
        </mxCell>
        <mxCell id="_ud3qoN4hDUyJuRRGHcF-5" value="&lt;span style=&quot;color: rgb(51 , 51 , 51) ; font-family: &amp;#34;arial&amp;#34; ; font-size: 16px ; background-color: rgb(255 , 255 , 255)&quot;&gt;IDM模式即芯片从设计到成品的整个过程都由制造商负责，这种模式可以保证产品从设计到制造环节的一体性。&lt;/span&gt;" style="rounded=0;whiteSpace=wrap;html=1;" vertex="1" parent="1">
          <mxGeometry x="730" y="70" width="430" height="60" as="geometry" />
        </mxCell>
      </root>
    </mxGraphModel>
  </diagram>
</mxfile>
